<?xml version="1.0" encoding="utf-8"?>
<!-- Generator: Adobe Illustrator 20.0.0, SVG Export Plug-In . SVG Version: 6.00 Build 0)  -->
<svg version="1.1" id="Layer_1" xmlns="http://www.w3.org/2000/svg" xmlns:xlink="http://www.w3.org/1999/xlink" x="0px" y="0px"
	 viewBox="0 0 472.2 51.6" style="enable-background:new 0 0 472.2 51.6;" xml:space="preserve">
<style type="text/css">
	.st0{fill:#EFC239;}
	.st1{fill:#ED4938;}
	.st2{fill:#F87117;}
	.st3{fill:#03CEC2;}
	.st4{fill:#ADC607;}
</style>
<path class="st0" d="M28.6,15.1c1.1-1.1,2.3-2.1,3.5-3.1c1.3-1.1,2.7-2.1,4.3-3c1.5-0.9,3.2-1.8,5.2-2.3c1-0.3,2-0.5,3.1-0.5
	c1.1,0,2.3,0.1,3.3,0.6c1.1,0.4,1.9,1,2.6,1.7c0.7,0.7,1.2,1.4,1.7,2.2c0.8,1.5,1.3,3.1,1.5,4.6c0.2,1.5,0.3,3.1,0.2,4.6
	c-0.1,1.5-0.4,3.1-0.9,4.6c-0.3,0.8-0.6,1.5-0.9,2.3c-0.1,0.2-0.2,0.4-0.3,0.6l-0.2,0.3l-0.1,0.1l-0.1,0.1l0,0.1l-0.8,1
	c-1.1,1.3-2.3,2.5-3.5,3.7c-0.6,0.6-1.3,1.1-1.9,1.7c-0.6,0.6-1.3,1.1-1.9,1.7c-1.3,1.1-2.6,2.1-4,3.2l-2,1.6l-2.1,1.5
	c-1.4,1-2.8,2-4.2,3c-1.4,1-2.8,2-4.3,2.9c-1.4,1-2.9,1.9-4.4,2.8l-1.1,0.7l-0.6-0.9l-5.9-8.5l-3-4.2c-1-1.4-2-2.8-3-4.2
	c-2-2.8-4.2-5.6-6.2-8.4l-0.7-1.1c-0.1-0.2-0.2-0.4-0.3-0.6l-0.1-0.3l-0.1-0.1l0-0.1l0,0l0,0l0-0.1c-0.3-0.8-0.5-1.6-0.7-2.5
	C0.2,19,0,17.3,0,15.7c0-1.7,0.2-3.3,0.6-5C1,9,1.7,7.3,2.8,5.8C3.4,5,4,4.3,4.8,3.6c0.4-0.3,0.8-0.7,1.2-1C6.4,2.3,6.8,2,7.3,1.8
	c0.4-0.3,1-0.5,1.5-0.7C9,0.9,9.3,0.9,9.5,0.8l0.3-0.1L10,0.6l0.1,0l0.2-0.1C11.4,0.1,12.7,0,13.9,0c1.2,0,2.4,0.3,3.5,0.7
	c1.1,0.4,2,0.9,2.8,1.5c1.7,1.2,2.9,2.6,4,4c1.1,1.4,1.9,2.9,2.7,4.5C27.6,12.1,28.2,13.6,28.6,15.1z"/>
<path class="st1" d="M133.1,15.1c1.1-1.1,2.3-2.1,3.5-3.1c1.3-1.1,2.7-2.1,4.3-3c1.5-0.9,3.2-1.8,5.2-2.3c1-0.3,2-0.5,3.1-0.5
	c1.1,0,2.3,0.1,3.3,0.6c1.1,0.4,1.9,1,2.6,1.7c0.7,0.7,1.2,1.4,1.7,2.2c0.8,1.5,1.3,3.1,1.5,4.6c0.2,1.5,0.3,3.1,0.2,4.6
	c-0.1,1.5-0.4,3.1-0.9,4.6c-0.3,0.8-0.6,1.5-0.9,2.3c-0.1,0.2-0.2,0.4-0.3,0.6l-0.2,0.3l-0.1,0.1l-0.1,0.1l0,0.1l-0.8,1
	c-1.1,1.3-2.3,2.5-3.5,3.7c-0.6,0.6-1.3,1.1-1.9,1.7c-0.6,0.6-1.3,1.1-1.9,1.7c-1.3,1.1-2.6,2.1-4,3.2l-2,1.6l-2.1,1.5
	c-1.4,1-2.8,2-4.2,3c-1.4,1-2.8,2-4.3,2.9c-1.4,1-2.9,1.9-4.4,2.8l-1.1,0.7l-0.6-0.9l-5.9-8.5l-3-4.2c-1-1.4-2-2.8-3-4.2
	c-2-2.8-4.2-5.6-6.2-8.4l-0.7-1.1c-0.1-0.2-0.2-0.4-0.3-0.6l-0.1-0.3l-0.1-0.1l0-0.1l0,0l0,0l0-0.1c-0.3-0.8-0.5-1.6-0.7-2.5
	c-0.4-1.6-0.5-3.3-0.6-5c0-1.7,0.2-3.3,0.6-5c0.4-1.7,1.1-3.3,2.2-4.9c0.5-0.8,1.2-1.5,1.9-2.2c0.4-0.3,0.8-0.7,1.2-1
	c0.4-0.3,0.9-0.6,1.3-0.8c0.4-0.3,1-0.5,1.5-0.7c0.3-0.1,0.5-0.2,0.7-0.3l0.3-0.1l0.1-0.1l0.1,0l0.2-0.1c1.1-0.4,2.4-0.5,3.6-0.5
	c1.2,0,2.4,0.3,3.5,0.7c1.1,0.4,2,0.9,2.8,1.5c1.7,1.2,2.9,2.6,4,4c1.1,1.4,1.9,2.9,2.7,4.5C132.1,12.1,132.7,13.6,133.1,15.1z"/>
<path class="st2" d="M237.7,15.1c1.1-1.1,2.3-2.1,3.5-3.1c1.3-1.1,2.7-2.1,4.3-3c1.5-0.9,3.2-1.8,5.2-2.3c1-0.3,2-0.5,3.1-0.5
	c1.1,0,2.3,0.1,3.3,0.6c1.1,0.4,1.9,1,2.6,1.7c0.7,0.7,1.2,1.4,1.7,2.2c0.8,1.5,1.3,3.1,1.5,4.6c0.2,1.5,0.3,3.1,0.2,4.6
	c-0.1,1.5-0.4,3.1-0.9,4.6c-0.3,0.8-0.6,1.5-0.9,2.3c-0.1,0.2-0.2,0.4-0.3,0.6l-0.2,0.3l-0.1,0.1l-0.1,0.1l0,0.1l-0.8,1
	c-1.1,1.3-2.3,2.5-3.5,3.7c-0.6,0.6-1.3,1.1-1.9,1.7c-0.6,0.6-1.3,1.1-1.9,1.7c-1.3,1.1-2.6,2.1-4,3.2l-2,1.6l-2.1,1.5
	c-1.4,1-2.8,2-4.2,3c-1.4,1-2.8,2-4.3,2.9c-1.4,1-2.9,1.9-4.4,2.8l-1.1,0.7l-0.6-0.9l-5.9-8.5l-3-4.2c-1-1.4-2-2.8-3-4.2
	c-2-2.8-4.2-5.6-6.2-8.4l-0.7-1.1c-0.1-0.2-0.2-0.4-0.3-0.6l-0.1-0.3l-0.1-0.1l0-0.1l0,0l0,0l0-0.1c-0.3-0.8-0.5-1.6-0.7-2.5
	c-0.4-1.6-0.5-3.3-0.6-5c0-1.7,0.2-3.3,0.6-5c0.4-1.7,1.1-3.3,2.2-4.9c0.5-0.8,1.2-1.5,1.9-2.2c0.4-0.3,0.8-0.7,1.2-1
	c0.4-0.3,0.9-0.6,1.3-0.8c0.4-0.3,1-0.5,1.5-0.7c0.3-0.1,0.5-0.2,0.7-0.3l0.3-0.1l0.1-0.1l0.1,0l0.2-0.1c1.1-0.4,2.4-0.5,3.6-0.5
	c1.2,0,2.4,0.3,3.5,0.7c1.1,0.4,2,0.9,2.8,1.5c1.7,1.2,2.9,2.6,4,4c1.1,1.4,1.9,2.9,2.7,4.5C236.7,12.1,237.3,13.6,237.7,15.1z"/>
<path class="st3" d="M342.2,15.1c1.1-1.1,2.3-2.1,3.5-3.1c1.3-1.1,2.7-2.1,4.3-3c1.5-0.9,3.2-1.8,5.2-2.3c1-0.3,2-0.5,3.1-0.5
	c1.1,0,2.3,0.1,3.3,0.6c1.1,0.4,1.9,1,2.6,1.7c0.7,0.7,1.2,1.4,1.7,2.2c0.8,1.5,1.3,3.1,1.5,4.6c0.2,1.5,0.3,3.1,0.2,4.6
	c-0.1,1.5-0.4,3.1-0.9,4.6c-0.3,0.8-0.6,1.5-0.9,2.3c-0.1,0.2-0.2,0.4-0.3,0.6l-0.2,0.3l-0.1,0.1l-0.1,0.1l0,0.1l-0.8,1
	c-1.1,1.3-2.3,2.5-3.5,3.7c-0.6,0.6-1.3,1.1-1.9,1.7c-0.6,0.6-1.3,1.1-1.9,1.7c-1.3,1.1-2.6,2.1-4,3.2l-2,1.6l-2.1,1.5
	c-1.4,1-2.8,2-4.2,3c-1.4,1-2.8,2-4.3,2.9c-1.4,1-2.9,1.9-4.4,2.8l-1.1,0.7l-0.6-0.9l-5.9-8.5l-3-4.2c-1-1.4-2-2.8-3-4.2
	c-2-2.8-4.2-5.6-6.2-8.4l-0.7-1.1c-0.1-0.2-0.2-0.4-0.3-0.6l-0.1-0.3l-0.1-0.1l0-0.1l0,0l0,0l0-0.1c-0.3-0.8-0.5-1.6-0.7-2.5
	c-0.4-1.6-0.5-3.3-0.6-5c0-1.7,0.2-3.3,0.6-5c0.4-1.7,1.1-3.3,2.2-4.9c0.5-0.8,1.2-1.5,1.9-2.2c0.4-0.3,0.8-0.7,1.2-1
	c0.4-0.3,0.9-0.6,1.3-0.8c0.4-0.3,1-0.5,1.5-0.7c0.3-0.1,0.5-0.2,0.7-0.3l0.3-0.1l0.1-0.1l0.1,0l0.2-0.1c1.1-0.4,2.4-0.5,3.6-0.5
	c1.2,0,2.4,0.3,3.5,0.7c1.1,0.4,2,0.9,2.8,1.5c1.7,1.2,2.9,2.6,4,4c1.1,1.4,1.9,2.9,2.7,4.5C341.2,12.1,341.8,13.6,342.2,15.1z"/>
<path class="st4" d="M446.8,15.1c1.1-1.1,2.3-2.1,3.5-3.1c1.3-1.1,2.7-2.1,4.3-3c1.5-0.9,3.2-1.8,5.2-2.3c1-0.3,2-0.5,3.1-0.5
	c1.1,0,2.3,0.1,3.3,0.6c1.1,0.4,1.9,1,2.6,1.7c0.7,0.7,1.2,1.4,1.7,2.2c0.8,1.5,1.3,3.1,1.5,4.6c0.2,1.5,0.3,3.1,0.2,4.6
	c-0.1,1.5-0.4,3.1-0.9,4.6c-0.3,0.8-0.6,1.5-0.9,2.3c-0.1,0.2-0.2,0.4-0.3,0.6l-0.2,0.3l-0.1,0.1l-0.1,0.1l0,0.1l-0.8,1
	c-1.1,1.3-2.3,2.5-3.5,3.7c-0.6,0.6-1.3,1.1-1.9,1.7c-0.6,0.6-1.3,1.1-1.9,1.7c-1.3,1.1-2.6,2.1-4,3.2l-2,1.6l-2.1,1.5
	c-1.4,1-2.8,2-4.2,3c-1.4,1-2.8,2-4.3,2.9c-1.4,1-2.9,1.9-4.4,2.8l-1.1,0.7l-0.6-0.9l-5.9-8.5l-3-4.2c-1-1.4-2-2.8-3-4.2
	c-2-2.8-4.2-5.6-6.2-8.4l-0.7-1.1c-0.1-0.2-0.2-0.4-0.3-0.6l-0.1-0.3l-0.1-0.1l0-0.1l0,0l0,0l0-0.1c-0.3-0.8-0.5-1.6-0.7-2.5
	c-0.4-1.6-0.5-3.3-0.6-5c0-1.7,0.2-3.3,0.6-5c0.4-1.7,1.1-3.3,2.2-4.9c0.5-0.8,1.2-1.5,1.9-2.2c0.4-0.3,0.8-0.7,1.2-1
	c0.4-0.3,0.9-0.6,1.3-0.8c0.4-0.3,1-0.5,1.5-0.7c0.3-0.1,0.5-0.2,0.7-0.3l0.3-0.1l0.1-0.1l0.1,0l0.2-0.1c1.1-0.4,2.4-0.5,3.6-0.5
	c1.2,0,2.4,0.3,3.5,0.7c1.1,0.4,2,0.9,2.8,1.5c1.7,1.2,2.9,2.6,4,4c1.1,1.4,1.9,2.9,2.7,4.5C445.8,12.1,446.4,13.6,446.8,15.1z"/>
</svg>
